<svg width="16" height="16" viewBox="0 0 16 16" fill="none" xmlns="http://www.w3.org/2000/svg">
<path d="M6 6.66662V4.66662C6 3.53329 6.86667 2.66662 8 2.66662C9.13333 2.66662 10 3.53329 10 4.66662V5.66662L11.8667 3.79996C11.4 1.66662 9.26667 0.333288 7.06667 0.799955C5.26667 1.19996 4 2.79996 4 4.66662V6.66662H3.46667C2.66667 6.66662 2 7.33329 2 8.13329V13.1333C2 13.2666 2 13.4 2.06667 13.5333L9 6.66662H6Z" fill="black"/>
<path d="M12 6.66663H12.5333C13.3333 6.66663 14 7.33329 14 8.19996V13.2C14 14 13.3333 14.6666 12.5333 14.6666H4L12 6.66663Z" fill="black"/>
<path d="M1.66675 15.3333C1.13341 15.3333 0.666748 14.8666 0.666748 14.3333C0.666748 14.0666 0.800081 13.8 0.933415 13.6L13.6001 0.933301C14.0001 0.533301 14.6001 0.533301 15.0001 0.933301C15.4001 1.3333 15.4001 1.9333 15.0001 2.3333L2.33341 15C2.20008 15.2 1.93341 15.3333 1.66675 15.3333Z" fill="black"/>
</svg>
