<svg width="16" height="16" viewBox="0 0 16 16" fill="none" xmlns="http://www.w3.org/2000/svg">
<path fill-rule="evenodd" clip-rule="evenodd" d="M7.98513 8.93368L2.46837 14.6547C2.31977 14.5071 2.20161 14.3297 2.12109 14.1332C2.04057 13.9366 1.99937 13.7251 2.00001 13.5115V8.38516C2.00902 7.98354 2.16882 7.60153 2.44522 7.32083C2.72162 7.04014 3.09268 6.88304 3.47903 6.88315H4.01148V4.83262C4.01148 3.72864 4.43325 2.66986 5.184 1.88923C5.93475 1.10859 6.95299 0.670044 8.01471 0.670044C9.07643 0.670044 10.0947 1.10859 10.8454 1.88923C11.5962 2.66986 12.0179 3.72864 12.0179 4.83262V6.88315H12.5553C12.7526 6.87587 12.9492 6.91222 13.132 6.98979C13.3148 7.06736 13.4797 7.1844 13.6157 7.33316C13.7518 7.48192 13.856 7.659 13.9213 7.85272C13.9867 8.04644 14.0118 8.25239 13.9949 8.45694V13.5833C13.99 13.7901 13.9436 13.9936 13.8587 14.1808C13.7738 14.3679 13.6523 14.5345 13.5019 14.67L7.98513 8.93368ZM6.59935 3.36093C6.22398 3.75125 6.01309 4.28063 6.01309 4.83262V6.88315H10.0163V4.83262C10.0163 4.28063 9.80544 3.75125 9.43006 3.36093C9.05469 2.97061 8.54557 2.75133 8.01471 2.75133C7.48385 2.75133 6.97473 2.97061 6.59935 3.36093ZM11 15H5L7.99764 12L11 15Z" fill="black"/>
</svg>
