<svg width="16" height="16" viewBox="0 0 16 16" fill="none" xmlns="http://www.w3.org/2000/svg">
<path d="M12.5333 6.66663H12V4.66663C12 2.46663 10.2 0.666626 8 0.666626C5.8 0.666626 4 2.46663 4 4.66663V6.66663H3.46667C2.66667 6.66663 2 7.33329 2 8.13329V13.1333C2 14 2.66667 14.6666 3.46667 14.6666H12.4667C13.2667 14.6666 13.9333 14 13.9333 13.2V8.19996C14 7.33329 13.3333 6.66663 12.5333 6.66663ZM6 4.66663C6 3.53329 6.86667 2.66663 8 2.66663C9.13333 2.66663 10 3.53329 10 4.66663V6.66663H6V4.66663Z" fill="black"/>
</svg>
