<svg width="16" height="16" viewBox="0 0 16 16" fill="none" xmlns="http://www.w3.org/2000/svg">
<path d="M8 2C4.688 2 2 4.688 2 8C2 11.312 4.688 14 8 14C11.312 14 14 11.312 14 8C14 4.688 11.312 2 8 2ZM8.6 12.2H7.4V11H8.6V12.2ZM9.842 7.55L9.302 8.102C8.87 8.54 8.6 8.9 8.6 9.8H7.4V9.5C7.4 8.84 7.67 8.24 8.102 7.802L8.846 7.046C9.068 6.83 9.2 6.53 9.2 6.2C9.2 5.54 8.66 5 8 5C7.34 5 6.8 5.54 6.8 6.2H5.6C5.6 4.874 6.674 3.8 8 3.8C9.326 3.8 10.4 4.874 10.4 6.2C10.4 6.728 10.184 7.208 9.842 7.55Z" fill="black"/>
</svg>
