<svg width="108" height="48" viewBox="0 0 108 48" fill="none" xmlns="http://www.w3.org/2000/svg">
<path d="M63.076 22.464C63.812 21.424 64.928 20.904 66.424 20.904C67.632 20.904 68.628 21.3 69.412 22.092C70.204 22.884 70.6 23.944 70.6 25.272V33H66.844V26.604C66.844 25.908 66.68 25.372 66.352 24.996C66.024 24.62 65.568 24.432 64.984 24.432C64.424 24.432 63.964 24.624 63.604 25.008C63.252 25.384 63.076 25.936 63.076 26.664V33H59.32V15.708H63.076V22.464ZM74.3361 22.668C75.5441 21.492 77.0681 20.904 78.9081 20.904C80.7481 20.904 82.2721 21.492 83.4801 22.668C84.6961 23.844 85.3041 25.324 85.3041 27.108C85.3041 28.892 84.6961 30.372 83.4801 31.548C82.2721 32.724 80.7481 33.312 78.9081 33.312C77.0681 33.312 75.5441 32.724 74.3361 31.548C73.1281 30.372 72.5241 28.892 72.5241 27.108C72.5241 25.324 73.1281 23.844 74.3361 22.668ZM78.9081 24.408C78.1721 24.408 77.5641 24.66 77.0841 25.164C76.6041 25.668 76.3641 26.316 76.3641 27.108C76.3641 27.9 76.6041 28.548 77.0841 29.052C77.5641 29.556 78.1721 29.808 78.9081 29.808C79.6521 29.808 80.2641 29.556 80.7441 29.052C81.2241 28.548 81.4641 27.9 81.4641 27.108C81.4641 26.316 81.2241 25.668 80.7441 25.164C80.2641 24.66 79.6521 24.408 78.9081 24.408ZM101.752 20.904C103.104 20.904 104.172 21.296 104.956 22.08C105.748 22.856 106.144 23.92 106.144 25.272V33H102.388V26.604C102.388 25.908 102.224 25.372 101.896 24.996C101.576 24.62 101.116 24.432 100.516 24.432C99.9638 24.432 99.5078 24.624 99.1478 25.008C98.7878 25.384 98.6078 25.936 98.6078 26.664V33H94.8518V26.604C94.8518 25.908 94.6878 25.372 94.3598 24.996C94.0318 24.62 93.5758 24.432 92.9918 24.432C92.4318 24.432 91.9718 24.624 91.6118 25.008C91.2598 25.384 91.0838 25.936 91.0838 26.664V33H87.3278V21.228H90.9278V22.704C91.6558 21.504 92.8238 20.904 94.4318 20.904C95.2078 20.904 95.9078 21.076 96.5318 21.42C97.1638 21.764 97.6598 22.248 98.0198 22.872C98.7958 21.56 100.04 20.904 101.752 20.904Z" fill="black"/>
<path d="M46.5 24C46.5 36.4264 36.4264 46.5 24 46.5C11.5736 46.5 1.5 36.4264 1.5 24C1.5 11.5736 11.5736 1.5 24 1.5C36.4264 1.5 46.5 11.5736 46.5 24Z" stroke="black" stroke-width="3"/>
<path fill-rule="evenodd" clip-rule="evenodd" d="M23.9999 25L12.8099 36.16C12.5085 35.8722 12.2688 35.5261 12.1055 35.1427C11.9421 34.7593 11.8586 34.3467 11.8599 33.93V23.93C11.8782 23.1465 12.2023 22.4013 12.7629 21.8538C13.3236 21.3062 14.0762 20.9998 14.8599 21H15.9399V17C15.9399 14.8464 16.7954 12.7811 18.3182 11.2583C19.841 9.73549 21.9063 8.88 24.0599 8.88C26.2134 8.88 28.2788 9.73549 29.8016 11.2583C31.3244 12.7811 32.1799 14.8464 32.1799 17V21H33.2699C33.6701 20.9858 34.0688 21.0567 34.4396 21.208C34.8104 21.3593 35.1448 21.5877 35.4208 21.8778C35.6968 22.168 35.9081 22.5135 36.0407 22.8914C36.1732 23.2693 36.2241 23.671 36.1899 24.07V34.07C36.1799 34.4735 36.0858 34.8705 35.9136 35.2355C35.7414 35.6006 35.4949 35.9257 35.1899 36.19L23.9999 25ZM21.189 14.1292C20.4276 14.8905 19.9999 15.9232 19.9999 17V21H28.1199V17C28.1199 15.9232 27.6921 14.8905 26.9307 14.1292C26.1693 13.3678 25.1367 12.94 24.0599 12.94C22.9831 12.94 21.9504 13.3678 21.189 14.1292ZM30.3199 37H17.6299L23.9699 30.66L30.3199 37Z" fill="black"/>
</svg>
