<svg width="96" height="96" viewBox="0 0 96 96" fill="none" xmlns="http://www.w3.org/2000/svg">
<path fill-rule="evenodd" clip-rule="evenodd" d="M48 90C71.196 90 90 71.196 90 48C90 24.804 71.196 6 48 6C24.804 6 6 24.804 6 48C6 71.196 24.804 90 48 90ZM96 48C96 74.5097 74.5097 96 48 96C21.4903 96 0 74.5097 0 48C0 21.4903 21.4903 0 48 0C74.5097 0 96 21.4903 96 48Z" fill="url(#paint0_linear)"/>
<path fill-rule="evenodd" clip-rule="evenodd" d="M47.9998 50L25.6198 72.32C25.0169 71.7445 24.5376 71.0522 24.2109 70.2855C23.8843 69.5187 23.7172 68.6934 23.7198 67.86V47.86C23.7563 46.2931 24.4046 44.8027 25.5259 43.7076C26.6471 42.6125 28.1524 41.9996 29.7198 42H31.8798V34C31.8798 29.6929 33.5907 25.5622 36.6363 22.5166C39.6819 19.471 43.8126 17.76 48.1198 17.76C52.4269 17.76 56.5576 19.471 59.6032 22.5166C62.6488 25.5622 64.3598 29.6929 64.3598 34V42H66.5398C67.3402 41.9716 68.1376 42.1134 68.8791 42.416C69.6207 42.7187 70.2896 43.1753 70.8416 43.7557C71.3936 44.336 71.8162 45.0269 72.0813 45.7827C72.3465 46.5385 72.4482 47.342 72.3798 48.14V68.14C72.3598 68.947 72.1716 69.741 71.8272 70.4711C71.4828 71.2012 70.9898 71.8514 70.3798 72.38L47.9998 50ZM42.378 28.2583C40.8553 29.7811 39.9998 31.8464 39.9998 34V42H56.2398V34C56.2398 31.8464 55.3843 29.7811 53.8615 28.2583C52.3387 26.7355 50.2733 25.88 48.1198 25.88C45.9662 25.88 43.9008 26.7355 42.378 28.2583Z" fill="url(#paint1_linear)"/>
<path d="M60.6398 74.0001H35.2598L47.9398 61.3201L60.6398 74.0001Z" fill="url(#paint2_linear)"/>
<defs>
<linearGradient id="paint0_linear" x1="0" y1="0" x2="96" y2="96" gradientUnits="userSpaceOnUse">
<stop stop-color="#29CAA4"/>
<stop offset="1" stop-color="#29CA41"/>
</linearGradient>
<linearGradient id="paint1_linear" x1="0" y1="0" x2="96" y2="96" gradientUnits="userSpaceOnUse">
<stop stop-color="#29CAA4"/>
<stop offset="1" stop-color="#29CA41"/>
</linearGradient>
<linearGradient id="paint2_linear" x1="0" y1="0" x2="96" y2="96" gradientUnits="userSpaceOnUse">
<stop stop-color="#29CAA4"/>
<stop offset="1" stop-color="#29CA41"/>
</linearGradient>
</defs>
</svg>
